<svg viewBox="0 0 500 300" xmlns="http://www.w3.org/2000/svg" stroke="black" stroke-width="0.5" fill="white">
  <defs>
    <style>
      text {
        font-size: 18px;
        stroke: none;
        dominant-baseline: middle;
        font-family: sans-serif;
      }
    </style>
  </defs>

  <rect x="5" y="10" width="490" height="275" stroke-width="2"/>

  <rect x="13" y="8" width="110" height="4" fill="white" stroke="none"/>
  <text x="18" y="10" fill="black">microservice</text>

  <svg x="20" y="20">
    <rect x="5" y="15" width="450" height="100" stroke-width="1.8" stroke="#4C8026" fill="#C2D5C8"/>

    <rect x="13" y="3" width="34" height="20" fill="#C2D5C8" stroke="none"/>
    <text x="19" y="15" fill="#4C8026">job</text>

    <svg x="10" y="30">
      <rect x="5" y="15" width="100" height="60" stroke-width="1.8" stroke="#003170" fill="#9ACDED"/>

      <rect x="13" y="3" width="44" height="20" fill="#9ACDED" stroke="none"/>
      <text x="19" y="15" fill="#003170">task</text>
    </svg>

    <svg x="120" y="30">
      <rect x="5" y="15" width="100" height="60" stroke-width="1.8" stroke="#003170" fill="#9ACDED"/>

      <rect x="13" y="3" width="44" height="20" fill="#9ACDED" stroke="none"/>
      <text x="19" y="15" fill="#003170">task</text>
    </svg>

    <svg x="230" y="30">
      <rect x="5" y="15" width="100" height="60" stroke-width="1.8" stroke="#003170" fill="#9ACDED"/>

      <rect x="13" y="3" width="44" height="20" fill="#9ACDED" stroke="none"/>
      <text x="19" y="15" fill="#003170">task</text>
    </svg>

    <svg x="340" y="30">
      <rect x="5" y="15" width="100" height="60" stroke-width="1.8" stroke="#003170" fill="#9ACDED"/>

      <rect x="13" y="3" width="44" height="20" fill="#9ACDED" stroke="none"/>
      <text x="19" y="15" fill="#003170">task</text>
    </svg>
  </svg>

  <svg x="20" y="150">
    <rect x="5" y="15" width="450" height="100" stroke-width="1.8" stroke="#4C8026" fill="#C2D5C8"/>

    <rect x="13" y="3" width="34" height="20" fill="#C2D5C8" stroke="none"/>
    <text x="19" y="15" fill="#4C8026">job</text>

    <svg x="10" y="30">
      <rect x="5" y="15" width="100" height="60" stroke-width="1.8" stroke="#003170" fill="#9ACDED"/>

      <rect x="13" y="3" width="44" height="20" fill="#9ACDED" stroke="none"/>
      <text x="19" y="15" fill="#003170">task</text>
    </svg>

    <svg x="120" y="30">
      <rect x="5" y="15" width="100" height="60" stroke-width="1.8" stroke="#003170" fill="#9ACDED"/>

      <rect x="13" y="3" width="44" height="20" fill="#9ACDED" stroke="none"/>
      <text x="19" y="15" fill="#003170">task</text>
    </svg>

    <svg x="230" y="30">
      <rect x="5" y="15" width="100" height="60" stroke-width="1.8" stroke="#003170" fill="#9ACDED"/>

      <rect x="13" y="3" width="44" height="20" fill="#9ACDED" stroke="none"/>
      <text x="19" y="15" fill="#003170">task</text>
    </svg>

    <svg x="340" y="30">
      <rect x="5" y="15" width="100" height="60" stroke-width="1.8" stroke="#003170" fill="#9ACDED"/>

      <rect x="13" y="3" width="44" height="20" fill="#9ACDED" stroke="none"/>
      <text x="19" y="15" fill="#003170">task</text>
    </svg>
  </svg>
</svg>
